<svg width="25" height="24" viewBox="0 0 25 24" fill="none" xmlns="http://www.w3.org/2000/svg">
<path d="M6.35298 2.0333C7.36801 1.29371 8.60714 0.89481 9.8804 0.897752C10.2376 0.897752 10.5219 1.07675 10.6871 1.1999C10.8716 1.34023 11.0443 1.51923 11.1991 1.69822C11.3088 1.82648 11.3688 1.98746 11.3688 2.15359L11.3688 7.34162L9.75389 7.34162C9.57834 6.8639 9.23291 6.46127 8.77865 6.2049C8.3244 5.94852 7.79056 5.8549 7.2715 5.94058C6.75244 6.02626 6.28157 6.28573 5.94212 6.67313C5.60267 7.06053 5.41649 7.55091 5.41649 8.0576C5.41649 8.56429 5.60267 9.05468 5.94212 9.44207C6.28157 9.82947 6.75244 10.0889 7.2715 10.1746C7.79056 10.2603 8.3244 10.1667 8.77865 9.91031C9.23291 9.65393 9.57834 9.2513 9.75389 8.77359L11.3688 8.77359L11.3688 22.2556C11.3688 22.3616 11.3444 22.4663 11.2973 22.5621C11.2502 22.658 11.1816 22.7425 11.0964 22.8098C10.4088 23.351 9.48896 23.8093 8.39204 23.8093C6.62684 23.8093 5.31262 22.953 4.46277 21.9291C3.85218 21.1996 3.43398 20.3389 3.2438 19.4203C2.66554 19.2719 2.12939 19.0003 1.67507 18.6255C0.853492 17.9482 0.206055 16.8499 0.206055 15.2174C0.206055 14.4198 0.261124 13.6996 0.384658 13.0695L5.04323 13.0695C5.98982 13.0695 6.76972 13.7497 6.88879 14.6289C6.39383 14.8012 5.97808 15.1363 5.71495 15.5749C5.45182 16.0135 5.35823 16.5275 5.45071 17.026C5.54318 17.5246 5.81578 17.9757 6.22037 18.2996C6.62495 18.6236 7.1355 18.7996 7.66186 18.7966C8.18823 18.7936 8.69655 18.6117 9.09709 18.2831C9.49762 17.9545 9.76459 17.5003 9.85087 17.0007C9.93715 16.5012 9.83718 15.9883 9.56862 15.5528C9.30005 15.1172 8.88017 14.787 8.38311 14.6203C8.32038 13.8094 7.94126 13.0513 7.32182 12.4981C6.70237 11.9449 5.88841 11.6375 5.04323 11.6375L0.862422 11.6375C1.09014 11.2108 1.39525 10.8499 1.79265 10.5936C1.89317 10.5296 1.99866 10.4731 2.10818 10.4246C1.68549 9.23325 1.79562 7.83851 2.20343 6.74305C2.4639 6.03852 2.87766 5.37266 3.44622 4.92875C3.82128 4.63519 4.26779 4.44188 4.75597 4.40465C4.9703 3.42661 5.57308 2.61755 6.35447 2.0333L6.35298 2.0333ZM12.8571 18.7974L13.9734 18.7974C14.8615 18.7974 15.7133 18.4579 16.3414 17.8537C16.9694 17.2495 17.3222 16.43 17.3222 15.5754L17.3222 12.9478C17.8187 12.7789 18.2372 12.4465 18.5037 12.0095C18.7702 11.5724 18.8675 11.0588 18.7784 10.5594C18.6894 10.06 18.4197 9.60702 18.017 9.28043C17.6144 8.95384 17.1047 8.77471 16.578 8.77471C16.0514 8.77471 15.5417 8.95384 15.139 9.28043C14.7364 9.60702 14.4667 10.06 14.3776 10.5594C14.2886 11.0588 14.3859 11.5724 14.6524 12.0095C14.9188 12.4465 15.3373 12.7789 15.8338 12.9478L15.8338 15.5754C15.8338 16.5635 15.0004 17.3654 13.9734 17.3654L12.8571 17.3654L12.8571 2.15359C12.8571 1.98746 12.917 1.82648 13.0268 1.69822C13.1801 1.51923 13.3542 1.34023 13.5388 1.1999C13.7025 1.07675 13.9868 0.897752 14.3455 0.897752C15.6187 0.89481 16.8579 1.29371 17.8729 2.0333C18.6543 2.61755 19.2571 3.42661 19.4699 4.40465C19.9581 4.44044 20.4046 4.63519 20.7797 4.92875C21.3482 5.37266 21.762 6.03852 22.0224 6.74305C22.4303 7.83851 22.5404 9.23468 22.1177 10.4232C22.2249 10.4719 22.3305 10.5292 22.4332 10.5951C22.8425 10.8571 23.1536 11.2323 23.3828 11.6748C23.8338 12.5411 24.0198 13.7497 24.0198 15.2174C24.0198 16.8513 23.3724 17.9482 22.5508 18.6255C22.0965 19.0003 21.5603 19.2719 20.9821 19.4203C20.8332 20.2193 20.4165 21.1444 19.7631 21.9291C18.9147 22.953 17.599 23.8093 15.8338 23.8093C14.7384 23.8093 13.8171 23.351 13.131 22.8098C13.0455 22.7427 12.9766 22.6582 12.9292 22.5623C12.8819 22.4665 12.8572 22.3617 12.8571 22.2556L12.8571 18.7974ZM7.64786 7.34162C7.45049 7.34162 7.2612 7.41705 7.12164 7.55132C6.98208 7.6856 6.90368 7.86771 6.90368 8.0576C6.90368 8.24749 6.98208 8.42961 7.12164 8.56388C7.2612 8.69815 7.45049 8.77359 7.64786 8.77359C7.84523 8.77359 8.03451 8.69815 8.17407 8.56388C8.31363 8.42961 8.39204 8.24749 8.39204 8.0576C8.39204 7.86771 8.31363 7.6856 8.17407 7.55132C8.03451 7.41705 7.84523 7.34162 7.64786 7.34162ZM7.64786 15.9334C7.45049 15.9334 7.2612 16.0089 7.12164 16.1431C6.98208 16.2774 6.90368 16.4595 6.90368 16.6494C6.90368 16.8393 6.98208 17.0214 7.12164 17.1557C7.2612 17.29 7.45049 17.3654 7.64786 17.3654C7.84523 17.3654 8.03451 17.29 8.17407 17.1557C8.31363 17.0214 8.39204 16.8393 8.39204 16.6494C8.39204 16.4595 8.31363 16.2774 8.17407 16.1431C8.03451 16.0089 7.84523 15.9334 7.64786 15.9334ZM16.578 11.6375C16.7754 11.6375 16.9647 11.5621 17.1042 11.4278C17.2438 11.2935 17.3222 11.1114 17.3222 10.9215C17.3222 10.7316 17.2438 10.5495 17.1042 10.4153C16.9647 10.281 16.7754 10.2056 16.578 10.2056C16.3806 10.2056 16.1914 10.281 16.0518 10.4153C15.9122 10.5495 15.8338 10.7316 15.8338 10.9215C15.8338 11.1114 15.9122 11.2935 16.0518 11.4278C16.1914 11.5621 16.3806 11.6375 16.578 11.6375Z" fill="black"/>
</svg>
