<svg width="21" height="20" viewBox="0 0 21 20" fill="none" xmlns="http://www.w3.org/2000/svg">
<path fill-rule="evenodd" clip-rule="evenodd" d="M10.833 0C5.31217 0 0.833008 4.47917 0.833008 10C0.833008 15.5208 5.31217 20 10.833 20C16.343 20 20.833 15.5208 20.833 10C20.833 4.47917 16.343 0 10.833 0ZM17.438 4.60917C18.6692 6.10861 19.3506 7.98408 19.3688 9.92417C19.0872 9.87 16.2672 9.295 13.4255 9.65333C13.3597 9.51167 13.3055 9.36 13.2405 9.20833C13.0638 8.79117 12.8759 8.3788 12.6772 7.97167C15.8222 6.69167 17.2538 4.84833 17.438 4.60917ZM10.833 1.47583C13.0022 1.47583 14.9872 2.28833 16.4947 3.6225C16.343 3.83917 15.0522 5.56417 12.0155 6.7025C10.6155 4.1325 9.06551 2.0275 8.82634 1.7025C9.48411 1.54891 10.1575 1.47256 10.833 1.475V1.47583ZM7.19967 2.2775C7.42717 2.58167 8.94551 4.69667 10.3663 7.2125C6.37467 8.27583 2.84967 8.25417 2.47051 8.25417C3.02384 5.6075 4.81384 3.40583 7.19967 2.2775ZM2.28634 10.0108V9.75083C2.65551 9.76167 6.79801 9.81583 11.0613 8.53583C11.3105 9.01333 11.538 9.50083 11.7547 9.98917C11.6463 10.0217 11.5272 10.0542 11.4188 10.0867C7.01551 11.5075 4.67217 15.39 4.47717 15.7158C3.06668 14.1504 2.28617 12.118 2.28634 10.0108ZM10.833 18.5467C8.85884 18.5467 7.03717 17.8742 5.59467 16.7467C5.74634 16.4317 7.48134 13.0908 12.2972 11.41C12.3188 11.3992 12.3305 11.3992 12.3513 11.3883C13.5555 14.5008 14.043 17.115 14.1738 17.8633C13.143 18.3083 12.0155 18.5467 10.833 18.5467ZM15.5947 17.0825C15.508 16.5617 15.0522 14.0675 13.9347 10.9975C16.6138 10.575 18.9563 11.2692 19.2497 11.3667C18.8805 13.7417 17.5138 15.7917 15.5947 17.0825Z" fill="white"/>
</svg>
