<svg width="31" height="18" viewBox="0 0 31 18" fill="none" xmlns="http://www.w3.org/2000/svg">
<path d="M20.2402 1.19067H27.9756V2.92648H20.2402V1.19067ZM12.4892 8.05858C14.1991 7.30185 15.0948 6.15063 15.0948 4.37179C15.0948 0.853556 12.2643 0 8.99562 0H0V17.6593H9.24765C12.7141 17.6593 15.9672 16.1172 15.9672 12.5308C15.9672 10.3144 14.835 8.67543 12.4892 8.05858ZM4.19537 3.01255H8.13096C9.64703 3.01255 11.008 3.40347 11.008 5.03168C11.008 6.53078 9.94947 7.13329 8.4489 7.13329H4.19537V3.01255ZM8.6738 14.6611H4.19149V9.79797H8.76298C10.6086 9.79797 11.7757 10.5117 11.7757 12.3192C11.7757 14.098 10.3837 14.6611 8.6738 14.6611ZM31 11.4513C31 7.66766 28.6076 4.51524 24.2804 4.51524C20.0734 4.51524 17.2119 7.44531 17.2119 11.2863C17.2119 15.2672 19.9222 18 24.2804 18C27.5801 18 29.7166 16.6264 30.7441 13.6964H27.3979C27.0334 14.7902 25.5522 15.364 24.4006 15.364C22.175 15.364 21.0118 14.159 21.0118 12.1112H30.9729C30.9845 11.8996 31 11.6772 31 11.4513ZM21.0118 9.8948C21.132 8.21279 22.3456 7.16198 24.1602 7.16198C26.0679 7.16198 27.0218 8.19845 27.1885 9.8948H21.0118Z" fill="white"/>
</svg>
