<svg width="25" height="23" viewBox="0 0 25 23" fill="none" xmlns="http://www.w3.org/2000/svg">
<path d="M18.0664 17.8599H16.578V19.3001C16.578 20.0952 16.2873 20.774 15.7059 21.3365C15.1245 21.8991 14.423 22.1804 13.6013 22.1804H12.1129C11.2912 22.1804 10.5897 21.8991 10.0083 21.3365C9.42691 20.774 9.13622 20.0952 9.13622 19.3001V17.8599H5.41532C3.97347 17.8599 2.74479 17.3686 1.7293 16.386C0.713803 15.4034 0.206055 14.2145 0.206055 12.8194C0.206055 11.9643 0.415355 11.1692 0.833957 10.4341C1.25256 9.69905 1.81845 9.09898 2.53162 8.63393C3.05875 9.66904 3.8068 10.5429 4.77579 11.2555C5.74477 11.968 6.82616 12.4368 8.01995 12.6619C6.9967 12.0918 6.18275 11.3117 5.57811 10.3216C4.97346 9.33151 4.67114 8.24389 4.67114 7.05876C4.67114 5.27357 5.32617 3.74715 6.63624 2.47952C7.9463 1.21188 9.52381 0.578064 11.3688 0.578064C12.7331 0.578064 13.9695 0.938103 15.078 1.65818C16.1865 2.37826 16.9966 3.32336 17.5082 4.49349C16.454 4.82352 15.5393 5.37858 14.7641 6.15866C13.9889 6.93875 13.4463 7.84635 13.1362 8.88146C13.6788 8.10137 14.3842 7.48256 15.2524 7.02501C16.1207 6.56746 17.0586 6.33868 18.0664 6.33868C19.7098 6.33868 21.1129 6.90124 22.2756 8.02637C23.4384 9.15149 24.0198 10.5091 24.0198 12.0993C24.0198 13.6895 23.4384 15.0471 22.2756 16.1722C21.1129 17.2974 19.7098 17.8599 18.0664 17.8599ZM17.9268 15.5647L13.299 10.8617C13.1749 10.7267 13.0277 10.6591 12.8571 10.6591C12.6866 10.6591 12.5393 10.7267 12.4153 10.8617L7.78739 15.5647C7.66336 15.6997 7.6246 15.876 7.67111 16.0935C7.71762 16.311 7.80289 16.4198 7.92692 16.4198H10.6246V19.3001C10.6246 19.7051 10.768 20.0464 11.0548 20.3239C11.3416 20.6015 11.6943 20.7402 12.1129 20.7402H13.6013C14.0199 20.7402 14.3726 20.6015 14.6594 20.3239C14.9462 20.0464 15.0897 19.7051 15.0897 19.3001V16.4198H17.7873C17.9113 16.4198 17.9966 16.311 18.0431 16.0935C18.0896 15.876 18.0509 15.6997 17.9268 15.5647Z" fill="black"/>
</svg>
