<svg width="25" height="19" viewBox="0 0 25 19" fill="none" xmlns="http://www.w3.org/2000/svg">
<path d="M14.5301 9.6459C14.2976 9.86965 13.9206 9.86965 13.6881 9.6459L13.2672 9.24102C13.0347 9.01727 13.0347 8.65463 13.2672 8.43088L14.5963 7.15249L13.2676 5.87375C13.0351 5.65 13.0351 5.28736 13.2676 5.06361L13.6884 4.65872C13.921 4.43498 14.2979 4.43498 14.5305 4.65872L16.7013 6.74725C16.9338 6.97099 16.9338 7.33364 16.7013 7.55738L14.5301 9.6459ZM10.9577 9.24137L10.5368 9.64626C10.3043 9.87001 9.92736 9.87001 9.69481 9.64626L7.52403 7.55774C7.29148 7.33399 7.29148 6.97135 7.52403 6.7476L9.69481 4.65908C9.92736 4.43534 10.3043 4.43534 10.5368 4.65908L10.9577 5.06397C11.1902 5.28771 11.1902 5.65036 10.9577 5.8741L9.62895 7.15249L10.9577 8.43124C11.1902 8.65498 11.1902 9.01763 10.9577 9.24137ZM0.801107 15.1715H9.8228C9.85034 15.8807 10.3701 16.3171 11.041 16.3171H13.3033C13.9988 16.3171 14.532 15.6917 14.5227 15.1715H23.4242C23.7516 15.1715 24.0195 15.4293 24.0195 15.7443V16.3171C24.0195 17.5772 22.9479 18.6082 21.6382 18.6082H2.58714C1.27738 18.6082 0.205765 17.5772 0.205765 16.3171V15.7443C0.205765 15.4293 0.473669 15.1715 0.801107 15.1715ZM2.58714 1.99741C2.58714 1.05231 3.39086 0.279053 4.37317 0.279053H19.8521C20.8344 0.279053 21.6382 1.05231 21.6382 1.99741V14.0259H2.58714V1.99741ZM4.96852 11.7348H19.2568V2.5702H4.96852V11.7348Z" fill="black"/>
</svg>
