<svg width="50" height="50" viewBox="0 0 50 50" fill="none" xmlns="http://www.w3.org/2000/svg">
<rect x="-0.000488281" width="50" height="50" rx="25" fill="white" fill-opacity="0.05"/>
<rect x="0.499512" y="0.5" width="49" height="49" rx="24.5" stroke="white" stroke-opacity="0.08"/>
<path fill-rule="evenodd" clip-rule="evenodd" d="M24.9995 27.8438L25.1356 27.8439L25.4372 27.8447C27.9988 27.858 33.9995 28.0845 33.9995 31.935C33.9995 35.5049 29.0712 35.982 25.2376 36L24.5618 35.9997C22.0003 35.9864 15.9995 35.76 15.9995 31.9105C15.9995 28.2651 21.1354 27.8438 24.9995 27.8438ZM24.9995 29.511C20.1653 29.511 17.7134 30.319 17.7134 31.9105C17.7134 33.5176 20.1653 34.3334 24.9995 34.3334C29.8337 34.3334 32.2857 33.5254 32.2857 31.935C32.2857 30.3256 29.8337 29.511 24.9995 29.511ZM24.9995 14C28.3507 14 31.0757 16.6518 31.0757 19.9105C31.0757 23.1692 28.3507 25.8211 24.9995 25.8211H24.9641C23.3428 25.8155 21.8232 25.1964 20.684 24.0806C19.5438 22.9636 18.9188 21.481 18.9244 19.9072C18.9244 16.6518 21.6495 14 24.9995 14ZM24.9995 15.6671C22.5956 15.6671 20.6383 17.571 20.6383 19.9105C20.6338 21.0431 21.0817 22.1045 21.8986 22.9058C22.7167 23.706 23.8067 24.1495 24.9675 24.1539L24.9995 24.9775V24.1539C27.4046 24.1539 29.3618 22.2501 29.3618 19.9105C29.3618 17.571 27.4046 15.6671 24.9995 15.6671Z" fill="white" fill-opacity="0.9"/>
</svg>
