<svg width="50" height="50" viewBox="0 0 50 50" fill="none" xmlns="http://www.w3.org/2000/svg">
<rect x="-0.000976562" width="50" height="50" rx="25" fill="white" fill-opacity="0.05"/>
<rect x="0.499023" y="0.5" width="49" height="49" rx="24.5" stroke="white" stroke-opacity="0.08"/>
<path fill-rule="evenodd" clip-rule="evenodd" d="M24.999 27.8438L25.1351 27.8439L25.4367 27.8447C27.9983 27.858 33.999 28.0845 33.999 31.935C33.999 35.5049 29.0707 35.982 25.2371 36L24.5613 35.9997C21.9998 35.9864 15.999 35.76 15.999 31.9105C15.999 28.2651 21.1349 27.8438 24.999 27.8438ZM24.999 29.511C20.1648 29.511 17.7129 30.319 17.7129 31.9105C17.7129 33.5176 20.1648 34.3334 24.999 34.3334C29.8332 34.3334 32.2852 33.5254 32.2852 31.935C32.2852 30.3256 29.8332 29.511 24.999 29.511ZM24.999 14C28.3502 14 31.0752 16.6518 31.0752 19.9105C31.0752 23.1692 28.3502 25.8211 24.999 25.8211H24.9636C23.3423 25.8155 21.8227 25.1964 20.6835 24.0806C19.5433 22.9636 18.9183 21.481 18.924 19.9072C18.924 16.6518 21.649 14 24.999 14ZM24.999 15.6671C22.5951 15.6671 20.6378 17.571 20.6378 19.9105C20.6333 21.0431 21.0812 22.1045 21.8981 22.9058C22.7162 23.706 23.8062 24.1495 24.967 24.1539L24.999 24.9775V24.1539C27.4041 24.1539 29.3613 22.2501 29.3613 19.9105C29.3613 17.571 27.4041 15.6671 24.999 15.6671Z" fill="white" fill-opacity="0.9"/>
</svg>
