<svg width="21" height="21" viewBox="0 0 21 21" fill="none" xmlns="http://www.w3.org/2000/svg">
<path d="M17.398 8.93459H15.243V7.67619C15.243 7.49517 15.2527 7.37758 15.2679 7.29943C15.2685 7.29628 15.2691 7.29326 15.2697 7.29037C15.3164 7.28065 15.3959 7.27025 15.5205 7.27025C15.9868 7.27025 16.434 7.27237 16.7648 7.27449C16.9301 7.27555 17.0662 7.27661 17.1609 7.27741L17.2703 7.27837L17.2989 7.27863L17.3061 7.2787L17.3079 7.27872L17.3083 7.27873L17.3084 7.27873L17.3085 7.27873L18.1958 7.28753L18.2171 6.40037L18.2834 3.64017L18.3027 2.83553L17.5052 2.72682L17.3836 3.61857C17.5052 2.72682 17.5051 2.72681 17.505 2.7268L17.5049 2.72677L17.5044 2.72671L17.5033 2.72657L17.5002 2.72615L17.4903 2.72484L17.4562 2.72051C17.4273 2.71692 17.3861 2.71198 17.3337 2.70615C17.2289 2.69449 17.0791 2.67925 16.8929 2.66411C16.5212 2.63388 16.0008 2.60372 15.4018 2.60372C13.7904 2.60372 12.5268 3.1321 11.671 4.04813C10.8272 4.95138 10.4661 6.13905 10.4661 7.30932V8.93457H9.29865H8.39865V9.83457V12.7903V13.6903H9.29865H10.4661V20.1H4.48489C2.99984 20.1 1.73301 18.8345 1.73301 17.1655V3.83447C1.73301 2.16944 2.99389 0.905954 4.47442 0.900021H4.48487H17.1811C18.6662 0.900021 19.933 2.16554 19.933 3.8345V17.1656C19.933 18.8345 18.6662 20.1 17.1811 20.1H15.243V13.6903H17.2649H18.1253L18.164 12.8308L18.2971 9.87509L18.3395 8.93459H17.398Z" stroke="white" stroke-width="1.8"/>
</svg>
