<svg width="22" height="21" viewBox="0 0 22 21" fill="none" xmlns="http://www.w3.org/2000/svg">
<path fill-rule="evenodd" clip-rule="evenodd" d="M10.8842 1.74649C5.81254 1.74649 1.70662 5.96866 1.70662 11.1682C1.70662 14.9861 3.9204 18.2716 7.10663 19.7494C7.44 19.9043 7.76582 19.8429 8.02045 19.6455C8.16127 19.5321 8.27478 19.3866 8.35209 19.2204C8.4294 19.0541 8.46841 18.8716 8.46606 18.6871L8.46606 18.1937L7.32943 18.0344C7.32102 18.0332 7.31264 18.0317 7.3043 18.03C6.67778 17.9036 6.25479 17.6759 5.94488 17.3478C5.68439 17.0717 5.52524 16.741 5.39039 16.4605L5.34348 16.3626C5.21885 16.0939 5.08274 15.8311 4.93557 15.5748C4.8225 15.3896 4.73455 15.2943 4.64744 15.2346C4.42631 15.0831 4.21356 14.826 4.21356 14.5048C4.21281 14.4123 4.23195 14.3209 4.26962 14.237C4.30729 14.1532 4.36253 14.079 4.43134 14.02C4.56121 13.9137 4.72307 13.8579 4.88867 13.8624C5.07461 13.8624 5.24967 13.9213 5.39541 13.9888C5.54451 14.0581 5.69276 14.1498 5.83097 14.2451C6.16768 14.4771 6.49937 14.7515 6.77997 15.09C7.07229 15.4415 7.27918 15.6649 7.59076 15.7107C7.84707 15.7488 8.1084 15.7497 8.31194 15.7402C8.34022 15.5736 8.38688 15.4109 8.45098 15.2554C8.20239 15.1954 7.95717 15.1214 7.7164 15.0337C7.16861 14.8329 6.558 14.5204 6.14758 14.0468C5.69695 13.5256 5.41803 13.0607 5.26224 12.5171C5.11063 11.9872 5.0855 11.4132 5.0855 10.7068C5.0855 9.62465 5.53864 8.71303 5.87871 8.22908C5.74806 7.8054 5.65415 7.37052 5.59811 6.92962C5.561 6.65158 5.56128 6.36956 5.59895 6.09159C5.64083 5.83793 5.74553 5.52627 6.0211 5.33841C6.28662 5.15574 6.59821 5.16353 6.84111 5.21028C7.09323 5.25963 7.3554 5.36784 7.59663 5.49164C7.98946 5.69249 8.37978 5.96087 8.67211 6.18856C9.17634 6.03532 10.0684 5.83793 10.875 5.81975L10.8934 5.81975C11.7009 5.83793 12.5527 6.03532 13.0444 6.18769C13.3375 5.96087 13.727 5.69163 14.119 5.49164C14.3602 5.36784 14.6216 5.25963 14.8745 5.21028C15.1174 5.16353 15.429 5.15574 15.6954 5.33754C15.9701 5.52627 16.0757 5.83793 16.1167 6.09159C16.1594 6.35564 16.1494 6.65086 16.1167 6.92962C16.0609 7.37049 15.9673 7.80536 15.8369 8.22908C16.177 8.71389 16.6301 9.62551 16.6301 10.7068C16.6301 11.4132 16.605 11.9872 16.4542 12.5162C16.2976 13.0616 16.0187 13.5256 15.5681 14.0468C15.1576 14.5204 14.547 14.8329 13.9992 15.0337C13.7085 15.1394 13.4113 15.2253 13.1097 15.2909C13.2127 15.6129 13.2496 15.8735 13.2496 16.0233L13.2496 18.6984C13.2496 19.1053 13.433 19.4524 13.6935 19.655C13.9465 19.8533 14.2715 19.9147 14.6048 19.7641C17.8212 18.2993 20.061 15.0052 20.061 11.1674C20.061 5.96866 15.9567 1.74649 10.8842 1.74649ZM8.77011 16.6068C8.55233 16.6388 8.76927 16.6068 8.76927 16.6068L8.76675 16.6068L8.76005 16.6085L8.73576 16.612C8.61135 16.6271 8.48648 16.6378 8.36136 16.644C8.12515 16.6553 7.801 16.6561 7.46847 16.6068C6.80593 16.5098 6.40305 16.025 6.14255 15.7099L6.11743 15.6804C6.03226 15.5783 5.94077 15.482 5.84353 15.3921C5.9298 15.5566 6.01943 15.7402 6.11575 15.9376L6.12413 15.9549L6.16684 16.0449C6.31342 16.3462 6.40975 16.547 6.56973 16.715C6.72552 16.8795 6.96843 17.0388 7.45926 17.1392L8.96192 17.3496C9.06687 17.3642 9.16309 17.4178 9.23273 17.5003C9.30236 17.5828 9.34066 17.6886 9.34051 17.798L9.34051 18.6871C9.34051 19.3797 9.02641 19.997 8.54479 20.371C8.29193 20.5707 7.99112 20.6952 7.6748 20.7312C7.35849 20.7673 7.03866 20.7133 6.74981 20.5753C3.26372 18.959 0.833008 15.3601 0.833008 11.1682C0.833008 5.46134 5.33678 0.841797 10.8842 0.841797C16.4316 0.841797 20.9354 5.46134 20.9354 11.1682C20.9354 15.3818 18.4737 18.9901 14.9575 20.5926C14.6684 20.728 14.3491 20.7797 14.0338 20.742C13.7185 20.7043 13.4191 20.5788 13.1675 20.3788C12.9188 20.1808 12.7178 19.926 12.5803 19.6343C12.4428 19.3426 12.3726 19.022 12.3751 18.6975L12.3751 16.0224C12.3751 15.9618 12.3341 15.612 12.1054 15.142C12.0739 15.0768 12.058 15.0047 12.0591 14.9318C12.0602 14.8589 12.0783 14.7874 12.1118 14.7233C12.1453 14.6591 12.1933 14.6043 12.2517 14.5634C12.3101 14.5225 12.3771 14.4968 12.4472 14.4883C12.7345 14.4554 13.2186 14.3593 13.7069 14.1801C14.2045 13.9983 14.6509 13.749 14.9164 13.4425C15.3109 12.9871 15.5078 12.6374 15.6158 12.2591C15.728 11.8669 15.7565 11.4106 15.7565 10.7068C15.7565 9.71901 15.254 8.88877 15.0228 8.62126C14.9703 8.5608 14.9345 8.48687 14.9192 8.40721C14.9039 8.32755 14.9096 8.24509 14.9357 8.16848C15.0529 7.82739 15.1953 7.29669 15.2498 6.82314C15.2766 6.58506 15.2783 6.38594 15.2548 6.24223C15.2496 6.18969 15.2342 6.13876 15.2096 6.09246C15.1519 6.08214 15.0928 6.0848 15.0362 6.10025C14.8938 6.12795 14.712 6.19721 14.506 6.30283C14.0956 6.51234 13.6684 6.82227 13.4037 7.0439C13.3453 7.09285 13.2757 7.12535 13.2016 7.13824C13.1275 7.15114 13.0514 7.14399 12.9807 7.11749C12.3025 6.88819 11.5971 6.75624 10.8842 6.72531C10.0407 6.74609 9.06745 6.99369 8.73493 7.11749C8.66427 7.14399 8.58818 7.15114 8.51406 7.13824C8.43994 7.12535 8.37031 7.09285 8.31194 7.0439C7.96964 6.75907 7.60033 6.51078 7.20966 6.30283C7.0419 6.21178 6.86339 6.14368 6.67862 6.10025C6.6223 6.08493 6.56346 6.08227 6.50607 6.09246C6.48145 6.13875 6.46607 6.18968 6.46084 6.24223C6.43739 6.38594 6.43906 6.58506 6.46587 6.82314C6.52031 7.29669 6.66354 7.82739 6.77997 8.16848C6.83274 8.32432 6.80007 8.49746 6.69286 8.62126C6.46168 8.88877 5.95912 9.71901 5.95912 10.7068C5.95912 11.4098 5.9876 11.8669 6.09984 12.2591C6.20872 12.6374 6.40472 12.9863 6.7984 13.4425C7.06475 13.749 7.51036 13.9983 8.00873 14.1801C8.41645 14.3293 8.83852 14.4326 9.26764 14.4883C9.35593 14.4981 9.43924 14.5355 9.50649 14.5954C9.57374 14.6553 9.62174 14.735 9.64411 14.8238C9.66648 14.9126 9.66215 15.0064 9.63171 15.0926C9.60127 15.1788 9.54615 15.2534 9.47369 15.3064C9.33549 15.4086 9.24419 15.5921 9.19309 15.8042C9.16671 15.9134 9.151 16.0251 9.14619 16.1375L9.14619 16.154C9.14726 16.2638 9.10971 16.3702 9.04052 16.4535C8.97134 16.5368 8.87524 16.5912 8.77011 16.6068Z" fill="white" stroke="white" stroke-width="0.5"/>
</svg>
