<svg width="21" height="21" viewBox="0 0 21 21" fill="none" xmlns="http://www.w3.org/2000/svg">
<path fill-rule="evenodd" clip-rule="evenodd" d="M6.01676 0.531151C7.10843 0.480895 7.4565 0.469727 10.2373 0.469727C13.0182 0.469727 13.3662 0.481825 14.457 0.531151C15.5477 0.580476 16.2922 0.754511 16.9437 1.00672C17.6259 1.26452 18.2448 1.66749 18.7567 2.18867C19.2778 2.6996 19.6799 3.31757 19.9367 4.00068C20.1899 4.65214 20.363 5.39668 20.4132 6.48556C20.4635 7.57909 20.4747 7.92716 20.4747 10.7071C20.4747 13.4879 20.4626 13.836 20.4132 14.9276C20.3639 16.0165 20.1899 16.761 19.9367 17.4125C19.6799 18.0957 19.2772 18.7147 18.7567 19.2264C18.2448 19.7476 17.6259 20.1496 16.9437 20.4065C16.2922 20.6596 15.5477 20.8327 14.4588 20.883C13.3662 20.9332 13.0182 20.9444 10.2373 20.9444C7.4565 20.9444 7.10843 20.9323 6.01676 20.883C4.92788 20.8336 4.18335 20.6596 3.53188 20.4065C2.8487 20.1496 2.22971 19.7469 1.71801 19.2264C1.19719 18.7151 0.794151 18.0964 0.536995 17.4134C0.284784 16.762 0.11168 16.0174 0.0614238 14.9286C0.0111679 13.835 -1.26016e-07 13.487 -9.91044e-08 10.7071C-7.2184e-08 7.92623 0.0120986 7.57816 0.0614239 6.48742C0.110749 5.39668 0.284784 4.65214 0.536995 4.00068C0.794531 3.31764 1.19788 2.69896 1.71894 2.18774C2.22991 1.66703 2.84828 1.264 3.53095 1.00672C4.18242 0.754511 4.92695 0.581407 6.01583 0.531151L6.01676 0.531151ZM14.3741 2.37387C13.2946 2.32455 12.9707 2.31431 10.2373 2.31431C7.50397 2.31431 7.18009 2.32455 6.10052 2.37387C5.10191 2.41947 4.56027 2.58606 4.19917 2.72659C3.72174 2.91273 3.38018 3.13329 3.02187 3.4916C2.68222 3.82204 2.42083 4.2243 2.25687 4.66889C2.11634 5.02999 1.94975 5.57164 1.90414 6.57025C1.85482 7.64982 1.84458 7.97369 1.84458 10.7071C1.84458 13.4404 1.85482 13.7643 1.90414 14.8439C1.94975 15.8425 2.11634 16.3841 2.25687 16.7452C2.42066 17.1892 2.68218 17.5921 3.02187 17.9225C3.35226 18.2622 3.75524 18.5237 4.19917 18.6875C4.56027 18.8281 5.10191 18.9946 6.10052 19.0403C7.18009 19.0896 7.50303 19.0998 10.2373 19.0998C12.9716 19.0998 13.2946 19.0896 14.3741 19.0403C15.3728 18.9946 15.9144 18.8281 16.2755 18.6875C16.7529 18.5014 17.0945 18.2808 17.4528 17.9225C17.7925 17.5921 18.054 17.1892 18.2178 16.7452C18.3583 16.3841 18.5249 15.8425 18.5705 14.8439C18.6198 13.7643 18.6301 13.4404 18.6301 10.7071C18.6301 7.97369 18.6198 7.64982 18.5705 6.57025C18.5249 5.57164 18.3583 5.02999 18.2178 4.66889C18.0317 4.19146 17.8111 3.84991 17.4528 3.4916C17.1223 3.15197 16.7201 2.89059 16.2755 2.72659C15.9144 2.58606 15.3728 2.41947 14.3741 2.37387ZM8.92975 13.863C9.66 14.1669 10.4731 14.208 11.2303 13.979C11.9874 13.7501 12.6416 13.2654 13.0811 12.6077C13.5206 11.95 13.7181 11.1602 13.6399 10.373C13.5617 9.58592 13.2127 8.85036 12.6524 8.29198C12.2953 7.93505 11.8634 7.66174 11.3879 7.49174C10.9125 7.32174 10.4053 7.25928 9.90275 7.30884C9.40026 7.3584 8.915 7.51876 8.48191 7.77837C8.04883 8.03799 7.67869 8.39039 7.39815 8.81022C7.11761 9.23005 6.93364 9.70686 6.85949 10.2063C6.78534 10.7058 6.82286 11.2155 6.96933 11.6987C7.11581 12.1819 7.36761 12.6267 7.70659 13.0009C8.04558 13.3751 8.46332 13.6695 8.92975 13.863ZM6.51653 6.98625C7.00515 6.49763 7.58523 6.11003 8.22365 5.84559C8.86207 5.58115 9.54632 5.44505 10.2373 5.44505C10.9284 5.44505 11.6126 5.58115 12.251 5.84559C12.8894 6.11003 13.4695 6.49763 13.9581 6.98625C14.4468 7.47488 14.8344 8.05496 15.0988 8.69337C15.3632 9.33179 15.4993 10.016 15.4993 10.7071C15.4993 11.3981 15.3632 12.0823 15.0988 12.7207C14.8344 13.3592 14.4468 13.9392 13.9581 14.4279C12.9713 15.4147 11.6329 15.9691 10.2373 15.9691C8.84176 15.9691 7.50335 15.4147 6.51653 14.4279C5.52971 13.441 4.97532 12.1026 4.97532 10.7071C4.97532 9.31149 5.52971 7.97307 6.51653 6.98625ZM16.6664 6.22869C16.7875 6.11447 16.8844 5.97712 16.9514 5.82476C17.0185 5.6724 17.0543 5.50814 17.0567 5.3417C17.0591 5.17526 17.0282 5.01003 16.9656 4.85578C16.903 4.70154 16.8101 4.56141 16.6924 4.44371C16.5747 4.32601 16.4346 4.23312 16.2803 4.17054C16.1261 4.10796 15.9608 4.07697 15.7944 4.07939C15.628 4.08182 15.4637 4.11762 15.3114 4.18467C15.159 4.25171 15.0216 4.34865 14.9074 4.46973C14.6853 4.70522 14.5637 5.01801 14.5684 5.3417C14.5731 5.6654 14.7038 5.97451 14.9327 6.20342C15.1616 6.43233 15.4707 6.56301 15.7944 6.56773C16.1181 6.57245 16.4309 6.45083 16.6664 6.22869Z" fill="white"/>
</svg>
