<svg width="22" height="21" viewBox="0 0 22 21" fill="none" xmlns="http://www.w3.org/2000/svg">
<path d="M16.6217 11.8949L16.6217 15.6899L14.388 15.6899L14.388 12.1484C14.388 11.2595 14.0648 10.6528 13.256 10.6528C12.6389 10.6528 12.271 11.0613 12.1094 11.4576C12.051 11.5992 12.0354 11.7963 12.0354 11.9934L12.0354 15.6899L9.80059 15.6899C9.80059 15.6899 9.83082 9.69299 9.80059 9.07194L12.0354 9.07194L12.0354 10.0092L12.0208 10.0307L12.0354 10.0307L12.0354 10.0102C12.3325 9.55851 12.862 8.91591 14.0492 8.91591C15.5189 8.91591 16.6217 9.86236 16.6217 11.8949ZM7.46261 5.88049C6.69857 5.88049 6.19824 6.37528 6.19824 7.02404C6.19824 7.66048 6.68398 8.16861 7.43342 8.16861L7.44802 8.16861C8.22769 8.16861 8.71238 7.65945 8.71238 7.02404C8.69779 6.37528 8.22769 5.88049 7.46261 5.88049ZM6.33062 15.6899L8.56541 15.6899L8.56541 9.07194L6.33062 9.07194L6.33062 15.6899Z" fill="white"/>
<path d="M5.15571 2.52265C4.60282 2.52265 4.07257 2.73895 3.68161 3.12397C3.29066 3.50899 3.07102 4.03119 3.07102 4.57569L3.07102 16.8939C3.07102 17.4384 3.29066 17.9606 3.68161 18.3457C4.07257 18.7307 4.60282 18.947 5.15571 18.947L17.6639 18.947C18.2168 18.947 18.747 18.7307 19.138 18.3457C19.5289 17.9606 19.7486 17.4384 19.7486 16.8939L19.7486 4.57569C19.7486 4.03119 19.5289 3.50899 19.138 3.12397C18.747 2.73895 18.2168 2.52265 17.6639 2.52265L5.15571 2.52265ZM5.15571 0.469604L17.6639 0.469604C18.7697 0.469604 19.8302 0.902208 20.6121 1.67225C21.394 2.44229 21.8333 3.48669 21.8333 4.57569L21.8333 16.8939C21.8333 17.9829 21.394 19.0273 20.6121 19.7974C19.8302 20.5674 18.7697 21 17.6639 21L5.15571 21C4.04992 21 2.98942 20.5674 2.20751 19.7974C1.4256 19.0273 0.986328 17.9829 0.986328 16.8939L0.986328 4.57569C0.986328 3.48669 1.4256 2.44229 2.20751 1.67225C2.98942 0.902208 4.04992 0.469604 5.15571 0.469604Z" fill="white"/>
</svg>
