<svg width="20" height="30" viewBox="0 0 20 30" fill="none" xmlns="http://www.w3.org/2000/svg">
<g clip-path="url(#clip0_3942_1258)">
<path d="M9.87842 7.47612C9.13674 7.47612 8.41172 7.69606 7.79503 8.10811C7.17835 8.52017 6.6977 9.10584 6.41387 9.79106C6.13004 10.4763 6.05578 11.2303 6.20047 11.9577C6.34517 12.6851 6.70232 13.3533 7.22677 13.8778C7.75122 14.4022 8.4194 14.7594 9.14683 14.9041C9.87426 15.0488 10.6283 14.9745 11.3135 14.6907C11.9987 14.4068 12.5844 13.9262 12.9964 13.3095C13.4085 12.6928 13.6284 11.9678 13.6284 11.2261C13.6273 10.2319 13.2318 9.27874 12.5288 8.57572C11.8258 7.87271 10.8726 7.47726 9.87842 7.47612ZM9.87842 13.1011C9.50758 13.1011 9.14507 12.9912 8.83673 12.7851C8.52838 12.5791 8.28806 12.2863 8.14615 11.9437C8.00423 11.601 7.9671 11.224 8.03945 10.8603C8.11179 10.4966 8.29037 10.1625 8.55259 9.9003C8.81482 9.63808 9.14891 9.4595 9.51263 9.38715C9.87634 9.3148 10.2533 9.35194 10.596 9.49385C10.9386 9.63576 11.2314 9.87609 11.4374 10.1844C11.6435 10.4928 11.7534 10.8553 11.7534 11.2261C11.7528 11.7232 11.5551 12.1998 11.2036 12.5513C10.8521 12.9028 10.3755 13.1006 9.87842 13.1011Z" fill="#C1D7EC"/>
<path d="M17.0843 4.01458C15.3026 2.23336 12.9243 1.17524 10.4083 1.04444C7.89237 0.913641 5.41714 1.71944 3.46037 3.30631C1.50359 4.89319 0.203985 7.14864 -0.187627 9.63737C-0.579239 12.1261 -0.0350955 14.6717 1.33978 16.7828L8.42418 27.6586C8.58183 27.9006 8.79739 28.0994 9.05132 28.237C9.30524 28.3747 9.5895 28.4468 9.87833 28.4468C10.1672 28.4468 10.4514 28.3747 10.7053 28.237C10.9593 28.0994 11.1748 27.9006 11.3325 27.6586L18.4171 16.7828C19.6928 14.8244 20.2566 12.487 20.014 10.1624C19.7713 7.83782 18.737 5.66727 17.0843 4.01458ZM16.8461 15.7593L9.87836 26.4556L2.91057 15.7593C0.777752 12.4852 1.23519 8.10354 3.99824 5.34038C4.77042 4.56818 5.68714 3.95563 6.69605 3.53772C7.70497 3.11981 8.78632 2.90471 9.87836 2.90471C10.9704 2.90471 12.0518 3.11981 13.0607 3.53772C14.0696 3.95563 14.9863 4.56818 15.7585 5.34038C18.5215 8.10354 18.9789 12.4852 16.8461 15.7593Z" fill="#C1D7EC"/>
</g>
<defs>
<clipPath id="clip0_3942_1258">
<rect width="20" height="30" fill="white"/>
</clipPath>
</defs>
</svg>
