<svg width="18" height="30" viewBox="0 0 18 30" fill="none" xmlns="http://www.w3.org/2000/svg">
<path d="M14.2638 1H3.41159C2.07971 1 1 2.07971 1 3.41159V26.3217C1 27.6536 2.07971 28.7333 3.41159 28.7333H14.2638C15.5957 28.7333 16.6754 27.6536 16.6754 26.3217V3.41159C16.6754 2.07971 15.5957 1 14.2638 1Z" stroke="#C1D7EC" stroke-width="1.6" stroke-linecap="round" stroke-linejoin="round"/>
<path d="M12.7873 1V2.57998C12.7873 2.99901 12.6209 3.40089 12.3246 3.69719C12.0283 3.99349 11.6264 4.15996 11.2074 4.15996H6.46743C6.04839 4.15996 5.64652 3.99349 5.35022 3.69719C5.05391 3.40089 4.88745 2.99901 4.88745 2.57998V1" stroke="#C1D7EC" stroke-width="1.6" stroke-linecap="round" stroke-linejoin="round"/>
</svg>
