<svg width="22" height="25" viewBox="0 0 22 25" fill="none" xmlns="http://www.w3.org/2000/svg">
<path d="M15.7908 9.4895L6.26532 3.7616M5.96765 3.7616L0.907227 6.62555V18.0814L5.96765 20.9453L11.0281 23.8093L16.0885 20.9453L21.1489 18.0814V6.62555L16.0885 3.7616L11.0281 0.897644L5.96765 3.7616ZM21.1489 6.62555L11.0281 12.3535L21.1489 6.62555ZM0.907227 6.62555L11.0281 12.3535L0.907227 6.62555ZM11.0281 23.8093V12.3535V23.8093ZM15.7908 9.4895V20.9453V9.4895ZM21.1489 12.3535L11.0281 18.0814L21.1489 12.3535ZM11.0281 18.0814L0.907227 12.3535L11.0281 18.0814ZM6.26532 20.9453V9.4895V20.9453ZM15.7908 3.7616L6.26532 9.4895L15.7908 3.7616Z" stroke="black" stroke-linecap="round" stroke-linejoin="round"/>
</svg>
