<svg width="21" height="21" viewBox="0 0 21 21" fill="none" xmlns="http://www.w3.org/2000/svg">
<path d="M15.8583 7.58179C15.4809 7.74559 15.0758 7.8582 14.6502 7.90734C15.085 7.6514 15.4173 7.24601 15.5752 6.76383C15.1609 7.00488 14.7087 7.17447 14.2379 7.26546C14.0398 7.05823 13.8015 6.89344 13.5376 6.78115C13.2736 6.66885 12.9895 6.61141 12.7026 6.61232C11.5406 6.61232 10.5991 7.53879 10.5991 8.68026C10.5991 8.84201 10.6175 8.99966 10.6534 9.15117C9.81997 9.11167 9.0039 8.89918 8.2573 8.52726C7.5107 8.15534 6.84997 7.63216 6.31725 6.9911C6.13015 7.30549 6.03164 7.66451 6.03214 8.03019C6.03214 8.7468 6.40443 9.38151 6.9685 9.75108C6.63461 9.74063 6.30788 9.6519 6.0147 9.49208L6.0147 9.51767C6.01787 9.99827 6.18782 10.4629 6.49562 10.8325C6.80342 11.2021 7.23003 11.4538 7.70282 11.5447C7.39243 11.6266 7.06767 11.6385 6.7521 11.5795C6.88966 11.9929 7.15277 12.3534 7.50491 12.6108C7.85704 12.8681 8.28072 13.0097 8.71713 13.0158C7.96841 13.5917 7.04915 13.9028 6.10393 13.9003C5.93471 13.9003 5.76754 13.89 5.60242 13.8716C6.56695 14.481 7.68535 14.8038 8.82687 14.8022C12.6974 14.8022 14.8132 11.6511 14.8132 8.91776L14.806 8.64954C15.2186 8.36011 15.5752 7.99833 15.8583 7.58179Z" fill="white"/>
<path d="M4.57696 2.51695C4.03295 2.51695 3.51123 2.73266 3.12656 3.11664C2.74189 3.50061 2.52578 4.02139 2.52578 4.56442L2.52578 16.8492C2.52578 17.3922 2.74189 17.913 3.12656 18.297C3.51123 18.681 4.03295 18.8967 4.57696 18.8967L16.884 18.8967C17.428 18.8967 17.9497 18.681 18.3344 18.297C18.7191 17.913 18.9352 17.3922 18.9352 16.8492L18.9352 4.56442C18.9352 4.02139 18.7191 3.50061 18.3344 3.11664C17.9497 2.73266 17.428 2.51695 16.884 2.51695L4.57696 2.51695ZM4.57696 0.469482L16.884 0.469482C17.972 0.469482 19.0155 0.900912 19.7848 1.66886C20.5542 2.43681 20.9864 3.47837 20.9864 4.56442L20.9864 16.8492C20.9864 17.9353 20.5542 18.9768 19.7848 19.7448C19.0155 20.5127 17.972 20.9441 16.884 20.9441L4.57696 20.9441C3.48895 20.9441 2.4455 20.5127 1.67616 19.7448C0.90682 18.9768 0.474609 17.9353 0.474609 16.8492L0.474609 4.56442C0.474609 3.47837 0.90682 2.43681 1.67616 1.66886C2.4455 0.900912 3.48895 0.469482 4.57696 0.469482Z" fill="white"/>
</svg>
