<svg width="25" height="24" viewBox="0 0 25 24" fill="none" xmlns="http://www.w3.org/2000/svg">
<path d="M23.8074 22.6221L20.3107 19.2624V6.337L18.6592 3.40068C18.5374 3.17681 18.3546 2.98937 18.1306 2.85861C17.9066 2.72785 17.65 2.65874 17.3883 2.65874C17.1267 2.65874 16.87 2.72785 16.646 2.85861C16.422 2.98937 16.2392 3.17681 16.1174 3.40068L14.5665 6.34394V13.7368L1.43388 1.10299C1.33345 1.00509 1.20514 0.938322 1.06531 0.911202C0.925476 0.884081 0.780457 0.897833 0.64874 0.950706C0.517024 1.00358 0.404577 1.09317 0.325738 1.20807C0.246898 1.32297 0.205237 1.45797 0.206067 1.59584V7.20471H1.76417V8.31537H0.206067V12.758H1.76417V13.8687H0.206067V18.4849H1.76417V19.5956H0.206067V23.115C0.206067 23.2991 0.281715 23.4757 0.41637 23.6058C0.551025 23.736 0.733657 23.8092 0.924088 23.8092H23.2976C23.4402 23.81 23.5799 23.7697 23.6987 23.6935C23.8176 23.6172 23.9102 23.5085 23.9649 23.3812C24.0196 23.2539 24.0338 23.1137 24.0058 22.9785C23.9777 22.8433 23.9087 22.7192 23.8074 22.6221ZM5.95024 18.3114V12.0222L12.4627 18.3114H5.95024ZM18.8746 19.7761H16.0025V18.0892H18.8746V19.7761ZM18.8746 16.9994H16.0025V6.68408L17.3955 4.06708L18.8746 6.69102V16.9994Z" fill="black"/>
</svg>
