<svg width="28" height="18" viewBox="0 0 28 18" fill="none" xmlns="http://www.w3.org/2000/svg">
<path d="M27.833 8.92244C27.833 8.8615 27.833 8.79224 27.83 8.71191C27.827 8.48753 27.821 8.23546 27.8149 7.96676C27.7908 7.19391 27.7486 6.42382 27.6823 5.69806C27.5919 4.69806 27.4593 3.86427 27.2785 3.23823C27.0877 2.5849 26.7137 1.98905 26.1939 1.51024C25.6741 1.03142 25.0267 0.686416 24.3164 0.509695C23.4636 0.299169 21.7942 0.168975 19.4437 0.0886426C18.3258 0.0498614 17.1294 0.0249306 15.9331 0.0110802C15.5143 0.00554 15.1255 0.00277008 14.776 0H13.89C13.5405 0.00277008 13.1518 0.00554 12.7329 0.0110802C11.5366 0.0249306 10.3403 0.0498614 9.22229 0.0886426C6.87185 0.171745 5.19941 0.301939 4.34964 0.509695C3.63908 0.685982 2.99141 1.03085 2.47152 1.50973C1.95164 1.98861 1.5778 2.58469 1.38747 3.23823C1.20366 3.86427 1.07408 4.69806 0.983677 5.69806C0.917383 6.42382 0.875195 7.19391 0.851088 7.96676C0.842048 8.23546 0.839035 8.48753 0.836021 8.71191C0.836021 8.79224 0.833008 8.8615 0.833008 8.92244V9.07756C0.833008 9.1385 0.833008 9.20776 0.836021 9.28809C0.839035 9.51246 0.845061 9.76454 0.851088 10.0332C0.875195 10.8061 0.917383 11.5762 0.983677 12.3019C1.07408 13.3019 1.20667 14.1357 1.38747 14.7618C1.77319 16.0886 2.90622 17.1357 4.34964 17.4903C5.19941 17.7008 6.87185 17.831 9.22229 17.9114C10.3403 17.9501 11.5366 17.9751 12.7329 17.9889C13.1518 17.9945 13.5405 17.9972 13.89 18H14.776C15.1255 17.9972 15.5143 17.9945 15.9331 17.9889C17.1294 17.9751 18.3258 17.9501 19.4437 17.9114C21.7942 17.8283 23.4666 17.6981 24.3164 17.4903C25.7598 17.1357 26.8928 16.0914 27.2785 14.7618C27.4624 14.1357 27.5919 13.3019 27.6823 12.3019C27.7486 11.5762 27.7908 10.8061 27.8149 10.0332C27.824 9.76454 27.827 9.51246 27.83 9.28809C27.83 9.20776 27.833 9.1385 27.833 9.07756V8.92244ZM25.6634 9.06648C25.6634 9.12465 25.6634 9.18836 25.6604 9.26316C25.6573 9.47922 25.6513 9.71745 25.6453 9.97507C25.6242 10.7119 25.582 11.4488 25.5187 12.133C25.4374 13.0249 25.3229 13.7562 25.1812 14.2465C24.9944 14.8864 24.446 15.3934 23.7529 15.5623C23.1201 15.7175 21.526 15.8421 19.3593 15.9169C18.2625 15.9557 17.0812 15.9806 15.903 15.9945C15.4902 16 15.1074 16.0028 14.7639 16.0028H13.9021L12.763 15.9945C11.5848 15.9806 10.4066 15.9557 9.30667 15.9169C7.14004 15.8393 5.54294 15.7175 4.91314 15.5623C4.22006 15.3906 3.67162 14.8864 3.48479 14.2465C3.34316 13.7562 3.22866 13.0249 3.14729 12.133C3.08401 11.4488 3.04484 10.7119 3.02073 9.97507C3.01169 9.71745 3.00868 9.47645 3.00566 9.26316C3.00566 9.18836 3.00265 9.12188 3.00265 9.06648V8.93352C3.00265 8.87535 3.00265 8.81163 3.00566 8.73684C3.00868 8.52077 3.0147 8.28255 3.02073 8.02493C3.04183 7.28809 3.08401 6.55125 3.14729 5.86703C3.22866 4.97507 3.34316 4.24377 3.48479 3.75346C3.67162 3.11357 4.22006 2.60665 4.91314 2.43767C5.54595 2.28255 7.14004 2.15789 9.30667 2.0831C10.4035 2.04432 11.5848 2.01939 12.763 2.00554C13.1759 2 13.5586 1.99723 13.9021 1.99723H14.7639L15.903 2.00554C17.0812 2.01939 18.2595 2.04432 19.3593 2.0831C21.526 2.16066 23.1231 2.28255 23.7529 2.43767C24.446 2.60942 24.9944 3.11357 25.1812 3.75346C25.3229 4.24377 25.4374 4.97507 25.5187 5.86703C25.582 6.55125 25.6212 7.28809 25.6453 8.02493C25.6543 8.28255 25.6573 8.52354 25.6604 8.73684C25.6604 8.81163 25.6634 8.87812 25.6634 8.93352V9.06648ZM11.6511 12.7119L18.6422 8.9723L11.6511 5.28809V12.7119Z" fill="white"/>
</svg>
